<svg width="18" height="18" viewBox="0 0 18 18" fill="none" xmlns="http://www.w3.org/2000/svg">
<path d="M14.7487 12.6083C14.5411 13.0924 14.2845 13.554 13.983 13.986C13.5802 14.5613 13.2495 14.9588 12.996 15.18C12.6022 15.5415 12.1792 15.7275 11.727 15.738C11.403 15.738 11.0115 15.6458 10.5555 15.4583C10.098 15.2715 9.67798 15.18 9.29323 15.18C8.89048 15.18 8.45848 15.2715 7.99573 15.4583C7.53373 15.6458 7.16023 15.744 6.87448 15.753C6.44173 15.7718 6.00898 15.5813 5.57773 15.18C5.30248 14.94 4.95823 14.5275 4.54498 13.944C4.10248 13.3223 3.73873 12.5985 3.45373 11.7758C3.14848 10.8855 2.99548 10.0245 2.99548 9.19052C2.99548 8.23577 3.20173 7.41152 3.61498 6.72152C3.92754 6.17962 4.37439 5.72734 4.91248 5.40827C5.44308 5.09002 6.0488 4.91866 6.66748 4.91177C7.01248 4.91177 7.46473 5.01827 8.02498 5.22827C8.58523 5.43827 8.94523 5.54477 9.10198 5.54477C9.22048 5.54477 9.61873 5.41952 10.2967 5.17127C10.9365 4.94102 11.4765 4.84577 11.919 4.88327C13.119 4.98002 14.0197 5.45252 14.619 6.30452C13.5465 6.95477 13.0162 7.86452 13.0267 9.03227C13.0357 9.94202 13.3665 10.6988 14.0145 11.2995C14.301 11.5737 14.6352 11.793 15.0007 11.9468C14.9212 12.177 14.8372 12.3968 14.7487 12.6083ZM11.9985 1.78502C11.9985 2.49752 11.7375 3.16352 11.2192 3.77927C10.5922 4.51127 9.83473 4.93502 9.01348 4.86827C9.00274 4.77867 8.99748 4.6885 8.99773 4.59827C8.99773 3.91352 9.29473 3.18152 9.82498 2.58227C10.089 2.27927 10.425 2.02652 10.8322 1.82552C11.2387 1.62752 11.6227 1.51802 11.9842 1.49927C11.994 1.59527 11.9985 1.69052 11.9985 1.78502Z" fill="black"/>
</svg>
